<svg width="20" height="20" viewBox="0 0 20 20" fill="none" xmlns="http://www.w3.org/2000/svg">
<g clip-path="url(#clip0_1730_9524)">
<path d="M9.99999 3.43506L9.10374 2.51381C6.99999 0.351311 3.14249 1.09756 1.74999 3.81631C1.09624 5.09506 0.948741 6.94131 2.14249 9.29756C3.29249 11.5663 5.68499 14.2838 9.99999 17.2438C14.315 14.2838 16.7062 11.5663 17.8575 9.29756C19.0512 6.94006 18.905 5.09506 18.25 3.81631C16.8575 1.09756 13 0.350061 10.8962 2.51256L9.99999 3.43506ZM9.99999 18.7501C-9.16626 6.08506 4.09874 -3.79994 9.77999 1.42881C9.85499 1.49756 9.92874 1.56881 9.99999 1.64256C10.0705 1.56888 10.1439 1.49799 10.22 1.43006C15.9 -3.80244 29.1662 6.08381 9.99999 18.7501Z" fill="black"/>
</g>
<defs>
<clipPath id="clip0_1730_9524">
<rect width="20" height="20" fill="white"/>
</clipPath>
</defs>
</svg>
